<svg width="337" height="85" viewBox="0 0 337 85" xmlns="http://www.w3.org/2000/svg">
  <g fill="#FFFFFF" fill-rule="evenodd">
    <path d="M1.853 58.444c0-10.378-.175-12.936-1.526-19.134v-.773l11.645-2.496 1.878 5.061c2.999-3.748 7.214-5.716 12.092-5.716 4.872 0 8.152 2.249 10.59 7.217 4.125-5.063 8.061-7.217 13.686-7.217 3.839 0 7.121 1.311 9.371 3.56 1.405 1.501 2.437 3.282 3.094 5.343 1.124 3.655 1.405 6.467 1.405 15.934l-.094 3.562c0 9.749.189 12.185 1.123 19.123H51.06c.75-3.656 1.406-12.749 1.406-19.779 0-12.934-1.501-17.34-6.092-17.34-5.156 0-7.781 6.093-7.781 18.278 0 6.186.658 14.341 1.499 18.841H25.658c.187-.659.284-.94.284-1.127.278-1.781.559-4.779.747-8.809l.468-8.341v-1.97c0-4.873-.468-10.216-1.312-13.028-.559-2.344-2.437-3.844-4.592-3.844-2.248 0-4.501 1.593-5.625 3.844-1.591 3.374-2.155 7.122-2.155 14.809 0 7.779.377 14.901 1.032 18.466H.327v-1.106c.938-6.626 1.526-15.288 1.526-23.358M103.165 79.624c-3.469 2.662-5.951 3.923-8.957 4.34h-4.917c-2.683-.384-5.057-1.437-7.029-3.119-1.406-1.221-2.437-2.532-3.093-3.844-1.781-3.844-1.967-5.342-1.967-19.964 0-9.374-.19-11.905-1.219-19.121l14.246-2.906c-.936 6.28-1.591 18.278-1.591 26.621 0 8.998 2.061 12.841 7.027 12.841 2.344 0 4.501-1.22 5.907-3.187 2.438-3.468 3.093-7.501 3.093-18.559 0-7.875-.281-10.592-1.31-14.81l14.06-2.906-.188 1.312c-.939 9.373-1.501 18.463-1.501 27.275 0 10.311.188 12.653 1.501 19.31H104.01v-3.938l-.845.655M142.806 75.22c2.714 0 4.685-1.687 4.685-4.122 0-2.626-1.595-4.127-8.155-7.594-9.748-5.249-12.937-8.905-12.937-14.809 0-8.061 6.375-13.499 16.031-13.499 5.247 0 10.215 1.501 16.403 4.874l-3.938 8.719c-3.935-3.094-8.153-4.781-11.528-4.781-2.437 0-4.127 1.406-4.127 3.468 0 2.157 1.783 3.654 7.878 6.844 10.308 5.155 13.683 8.996 13.683 15.278 0 7.946-5.415 13.376-14.043 14.365h-6.13c-4.933-.489-10.145-2.067-14.602-4.524l1.97-10.123c3.84 3.092 10.875 5.904 14.81 5.904M197.442 54.694c-1.035-6.937-3.563-10.124-7.969-10.124-5.06 0-8.623 5.063-8.623 12.278v.939l16.592-3.093ZM168.195 59.1c0-13.405 9.092-23.903 20.809-23.903 5.061 0 9.841 2.157 13.406 5.905 4.124 4.593 6.184 9.654 7.494 18.559l.098 1.22-28.122 5.247c1.407 5.157 5.906 8.812 10.873 8.812 3.376 0 7.779-1.593 11.341-4.22l4.407 7.687c-4.826 3.19-9.651 5.025-14.37 5.556h-5.613c-11.671-1.402-20.323-11.717-20.323-24.863ZM246.264 79.624c-3.47 2.662-5.952 3.923-8.958 4.34h-4.917c-2.682-.384-5.056-1.437-7.029-3.119-1.406-1.221-2.438-2.532-3.093-3.844-1.78-3.844-1.967-5.342-1.967-19.964 0-9.374-.19-11.905-1.218-19.121l14.246-2.906c-.937 6.28-1.591 18.278-1.591 26.621 0 8.998 2.061 12.841 7.025 12.841 2.346 0 4.503-1.22 5.909-3.187 2.438-3.468 3.093-7.501 3.093-18.559 0-7.875-.282-10.592-1.311-14.81l14.059-2.906-.187 1.312c-.938 9.373-1.5 18.463-1.5 27.275 0 10.311.187 12.653 1.5 19.31h-13.216v-3.938l-.845.655M272.965 58.444c0-10.781-.187-13.122-1.687-19.872l11.813-2.531 1.874 5.061c2.997-3.748 7.219-5.716 12.09-5.716 4.876 0 8.156 2.249 10.593 7.217 4.125-5.063 8.06-7.217 13.686-7.217 3.844 0 7.123 1.311 9.371 3.56 1.408 1.501 2.438 3.282 3.095 5.343 1.125 3.655 1.406 6.467 1.406 15.934l-.092 3.562c0 9.749.186 12.185 1.124 19.123h-14.062c.75-3.656 1.406-12.749 1.406-19.779 0-12.934-1.5-17.34-6.092-17.34-5.154 0-7.78 6.093-7.78 18.278 0 6.186.657 14.341 1.501 18.841h-14.435c.188-.659.279-.94.279-1.127.281-1.781.565-4.779.753-8.809l.469-8.341v-1.97c0-4.873-.469-10.216-1.313-13.028-.566-2.344-2.438-3.844-4.594-3.844-2.252 0-4.499 1.593-5.621 3.844-1.598 3.374-2.158 7.122-2.158 14.809 0 7.779.374 14.901 1.03 18.466h-14.343c1.033-6.749 1.687-15.937 1.687-24.464M9.816 15.218 5.805 8.15 4.438 3.932h-.047v11.286H.87V.388h4.798l3.545 6.51 1.367 4.172h.046V.388h3.522v14.83M29.949 2.61c-1.621 0-3.055 1.392-3.055 5.191 0 3.801 1.414 5.098 3.055 5.098 1.648 0 3.082-1.297 3.082-5.098 0-3.799-1.458-5.191-3.082-5.191Zm0 12.86c-3.889 0-6.765-2.965-6.765-7.669S26.081.131 29.95.131c3.848 0 6.769 2.966 6.769 7.67s-2.898 7.669-6.769 7.669ZM51.015 2.912c-.648-.184-1.436-.184-1.736-.184v4.633c.208 0 .879-.022 1.41-.138 1.184-.255 2.04-.881 2.04-2.225 0-1.368-.856-1.853-1.714-2.086Zm2.108 12.491-2.711-5.794c-.348.046-.788.071-1.133.093v5.515h-3.524V.387c2.895 0 5.191-.047 6.743.324 1.992.463 3.941 1.622 3.941 4.357 0 1.876-1.185 3.174-3.199 3.938l3.87 6.073-3.987.324ZM71.96 3.261v11.957h-3.499V3.261h-4.267V.388h12.052v2.873M93.46 15.218V9.285h-5.396v5.933H84.54V.388h3.524v6.025h5.396V.388h3.524v14.83M117.676 15.218V.388h3.524v12.466l2.825-.509h3.198v2.873M135.52 15.218h3.522V.388h-3.522zM157.695 15.218l-4.011-7.068-1.367-4.218h-.047v11.286h-3.522V.388h4.798l3.545 6.51 1.367 4.172h.047V.388h3.522v14.83M178.663 15.471c-4.288 0-7.601-2.432-7.601-7.506 0-4.935 3.313-7.878 7.67-7.878 1.137 0 2.224.255 2.782.439V2.96a8.682 8.682 0 0 0-2.341-.349c-2.455 0-4.401 1.6-4.401 5.306 0 3.547 1.85 4.983 4.496 4.983a11.2 11.2 0 0 0 2.315-.277v2.479c-.602.185-1.691.369-2.92.369M196.085 2.61c-1.624 0-3.058 1.392-3.058 5.191 0 3.801 1.412 5.098 3.058 5.098 1.644 0 3.082-1.297 3.082-5.098 0-3.799-1.461-5.191-3.082-5.191Zm0 12.86c-3.892 0-6.768-2.965-6.768-7.669s2.898-7.67 6.768-7.67c3.844 0 6.766 2.966 6.766 7.67s-2.897 7.669-6.766 7.669ZM211.89 15.218V.388h3.523v12.466l2.822-.509h3.199v2.873M238.677 15.218l-4.011-7.068-1.367-4.218h-.047v11.286h-3.52V.388h4.796l3.545 6.51 1.369 4.172h.045V.388h3.523v14.83M255.914 15.471c-.786 0-2.525-.114-3.892-.67v-2.387c.925.325 2.085.579 3.382.579 1.53 0 2.851-.37 2.851-1.716 0-2.617-6.141-1.551-6.141-6.602 0-3.129 2.664-4.565 5.586-4.565 1.204 0 2.57.208 3.662.602v2.434c-.649-.209-2.088-.487-3.038-.487-1.598 0-2.523.602-2.523 1.645 0 2.594 6.118 1.667 6.118 6.582 0 3.011-2.458 4.585-6.005 4.585M279.805 15.218V9.285h-5.399v5.933h-3.523V.388h3.523v6.025h5.399V.388h3.521v14.83M293.037 15.218h3.523V.388h-3.523zM311.53 2.912c-.652-.184-1.44-.184-1.74-.184v4.633c.208 0 .88-.022 1.414-.138 1.18-.255 2.04-.881 2.04-2.225 0-1.368-.86-1.853-1.714-2.086Zm2.106 12.491-2.711-5.794c-.346.046-.79.071-1.135.093v5.515h-3.524V.387c2.9 0 5.192-.047 6.743.324 1.994.463 3.94 1.622 3.94 4.357 0 1.876-1.183 3.174-3.2 3.938l3.872 6.073-3.985.324ZM326.195 15.218V.388h9.34v2.873h-2.991l-2.825-.51v3.522h5.026v2.874h-5.026v3.707l2.825-.509h3.198v2.873"/>
  </g>
</svg>