<svg width="497px" height="110px" viewBox="0 0 497 110" version="1.1" xmlns="http://www.w3.org/2000/svg" xmlns:xlink="http://www.w3.org/1999/xlink">
    <title>Museum</title>
    <g id="Page-1" stroke="none" stroke-width="1" fill="none" fill-rule="evenodd">
        <g id="t" transform="translate(-143.000000, -113.000000)" fill="#FFFFFF" fill-rule="nonzero">
            <path d="M163.375,221 L163.375,135.5 L163.675,135.5 L182.725,221 L199.525,221 L218.575,135.5 L218.875,135.5 L218.875,221 L238.675,221 L238.675,113.9 L206.725,113.9 L191.275,189.5 L190.975,189.5 L175.675,113.9 L143.575,113.9 L143.575,221 L163.375,221 Z M274.075,222.65 C278.575,222.65 282.575,221.8 286.075,220.1 C289.575,218.4 292.425,215.55 294.625,211.55 L294.925,211.55 L294.925,221 L314.725,221 L314.725,140.3 L294.025,140.3 L294.025,193.85 C294.025,202.75 290.375,207.2 283.075,207.2 C279.975,207.2 277.725,206.375 276.325,204.725 C274.925,203.075 274.225,200.15 274.225,195.95 L274.225,140.3 L253.525,140.3 L253.525,200.15 C253.525,208.25 255.3,214.025 258.85,217.475 C262.4,220.925 267.475,222.65 274.075,222.65 Z M354.775,222.65 C359.175,222.65 363.2,222.2 366.85,221.3 C370.5,220.4 373.65,218.9 376.3,216.8 C378.95,214.7 381.025,212.075 382.525,208.925 C384.025,205.775 384.775,202.05 384.775,197.75 C384.775,191.65 383.425,186.825 380.725,183.275 C378.025,179.725 373.425,176.85 366.925,174.65 L354.475,170.45 C350.975,169.35 348.6,168 347.35,166.4 C346.1,164.8 345.475,163 345.475,161 C345.475,158.1 346.45,155.925 348.4,154.475 C350.35,153.025 352.625,152.3 355.225,152.3 C358.625,152.3 361,153.275 362.35,155.225 C363.7,157.175 364.375,160.25 364.375,164.45 L382.975,164.45 L382.975,161.15 C382.975,153.85 380.725,148.2 376.225,144.2 C371.725,140.2 364.775,138.2 355.375,138.2 C350.075,138.2 345.55,138.85 341.8,140.15 C338.05,141.45 334.975,143.2 332.575,145.4 C330.175,147.6 328.425,150.175 327.325,153.125 C326.225,156.075 325.675,159.2 325.675,162.5 C325.675,168.2 327.125,172.875 330.025,176.525 C332.925,180.175 337.225,183 342.925,185 L357.475,190.25 C359.475,191.05 361.225,192.125 362.725,193.475 C364.225,194.825 364.975,196.8 364.975,199.4 C364.975,202.6 364.025,205 362.125,206.6 C360.225,208.2 357.675,209 354.475,209 C350.975,209 348.3,207.925 346.45,205.775 C344.6,203.625 343.675,200.8 343.675,197.3 L343.675,194.6 L325.075,194.6 L325.075,197.45 C325.075,201.35 325.525,204.875 326.425,208.025 C327.325,211.175 328.9,213.85 331.15,216.05 C333.4,218.25 336.45,219.9 340.3,221 C344.15,222.1 348.975,222.65 354.775,222.65 Z M423.325,222.65 C433.225,222.65 440.475,220.2 445.075,215.3 C449.675,210.4 452.175,203.25 452.575,193.85 L433.975,193.85 C433.375,198.95 432.275,202.75 430.675,205.25 C429.075,207.75 426.525,209 423.025,209 C421.125,209 419.525,208.475 418.225,207.425 C416.925,206.375 415.875,204.975 415.075,203.225 C414.275,201.475 413.7,199.475 413.35,197.225 C413,194.975 412.825,192.65 412.825,190.25 L412.825,183.8 L453.775,183.8 L453.775,179.15 C453.775,172.95 453.375,167.325 452.575,162.275 C451.775,157.225 450.275,152.925 448.075,149.375 C445.875,145.825 442.85,143.075 439,141.125 C435.15,139.175 430.225,138.2 424.225,138.2 C417.225,138.2 411.625,139.35 407.425,141.65 C403.225,143.95 400,147.05 397.75,150.95 C395.5,154.85 394,159.3 393.25,164.3 C392.5,169.3 392.125,174.5 392.125,179.9 C392.125,185 392.35,190.1 392.8,195.2 C393.25,200.3 394.475,204.9 396.475,209 C398.475,213.1 401.575,216.4 405.775,218.9 C409.975,221.4 415.825,222.65 423.325,222.65 Z M433.975,171.5 L412.825,171.5 L412.825,168.35 C412.825,166.45 413,164.55 413.35,162.65 C413.7,160.75 414.275,159.025 415.075,157.475 C415.875,155.925 416.95,154.675 418.3,153.725 C419.65,152.775 421.375,152.3 423.475,152.3 C425.575,152.3 427.3,152.725 428.65,153.575 C430,154.425 431.05,155.675 431.8,157.325 C432.55,158.975 433.075,160.975 433.375,163.325 C433.675,165.675 433.875,168.4 433.975,171.5 Z M485.125,222.65 C489.625,222.65 493.625,221.8 497.125,220.1 C500.625,218.4 503.475,215.55 505.675,211.55 L505.975,211.55 L505.975,221 L525.775,221 L525.775,140.3 L505.075,140.3 L505.075,193.85 C505.075,202.75 501.425,207.2 494.125,207.2 C491.025,207.2 488.775,206.375 487.375,204.725 C485.975,203.075 485.275,200.15 485.275,195.95 L485.275,140.3 L464.575,140.3 L464.575,200.15 C464.575,208.25 466.35,214.025 469.9,217.475 C473.45,220.925 478.525,222.65 485.125,222.65 Z M560.275,221 L560.275,167.9 C560.275,163.1 561.25,159.6 563.2,157.4 C565.15,155.2 567.775,154.1 571.075,154.1 C573.975,154.1 576.05,155 577.3,156.8 C578.55,158.6 579.175,161.2 579.175,164.6 L579.175,221 L599.875,221 L599.875,167.9 C599.875,163.1 600.85,159.6 602.8,157.4 C604.75,155.2 607.375,154.1 610.675,154.1 C613.575,154.1 615.65,155 616.9,156.8 C618.15,158.6 618.775,161.2 618.775,164.6 L618.775,221 L639.475,221 L639.475,162.35 C639.475,154.55 637.85,148.575 634.6,144.425 C631.35,140.275 626.275,138.2 619.375,138.2 C614.475,138.2 610.25,139.275 606.7,141.425 C603.15,143.575 600.575,146.8 598.975,151.1 L598.675,151.1 C597.575,146.9 595.4,143.7 592.15,141.5 C588.9,139.3 584.875,138.2 580.075,138.2 C575.575,138.2 571.7,139 568.45,140.6 C565.2,142.2 562.275,144.85 559.675,148.55 L559.375,148.55 L559.375,140.3 L539.575,140.3 L539.575,221 L560.275,221 Z" id="Museum"></path>
        </g>
    </g>
</svg>
